<?xml version="1.0" encoding="utf-8"?>
<!-- Generator: Adobe Illustrator 23.0.4, SVG Export Plug-In . SVG Version: 6.00 Build 0)  -->
<svg version="1.1" id="Icons" xmlns="http://www.w3.org/2000/svg" xmlns:xlink="http://www.w3.org/1999/xlink" x="0px" y="0px"
	 viewBox="0 0 32 32" style="enable-background:new 0 0 32 32;" xml:space="preserve">
<style type="text/css">
	.st0{fill:none;stroke:#000000;stroke-width:2;stroke-linecap:round;stroke-linejoin:round;stroke-miterlimit:10;}
	.st1{fill:none;stroke:#000000;stroke-width:2;stroke-linejoin:round;stroke-miterlimit:10;}
</style>
<line class="st0" x1="16" y1="7.43" x2="16" y2="16"/>
<polyline class="st0" points="19.4,4 16,7.43 12.6,4 "/>
<line class="st0" x1="8.64" y1="11.71" x2="16" y2="16"/>
<polyline class="st0" points="7.4,7.03 8.64,11.71 4,12.97 "/>
<line class="st0" x1="8.64" y1="20.29" x2="16" y2="16"/>
<polyline class="st0" points="4,19.03 8.64,20.29 7.4,24.97 "/>
<line class="st0" x1="16" y1="24.57" x2="16" y2="16"/>
<polyline class="st0" points="12.6,28 16,24.57 19.4,28 "/>
<line class="st0" x1="23.36" y1="20.29" x2="16" y2="16"/>
<polyline class="st0" points="24.6,24.97 23.36,20.29 28,19.03 "/>
<line class="st0" x1="23.36" y1="11.71" x2="16" y2="16"/>
<polyline class="st0" points="28,12.97 23.36,11.71 24.6,7.03 "/>
<line class="st0" x1="9" y1="16" x2="23" y2="16"/>
<line class="st0" x1="12" y1="22" x2="20" y2="10"/>
<line class="st0" x1="20" y1="22" x2="12" y2="10"/>
</svg>
